# xmcd
#
# Track frame offsets: 
#        150
#        15093
#        34283
#        47905
#        62823
#        77813
#        98363
#        115505
#        134108
#        149047
#        166291
#        181046
#        197068
#        211386
#        228483
#
# Disc length: 3263 seconds
#
# Revision: 1
# Processed by: cddbd v1.5.2PL0 Copyright (c) Steve Scherf et al.
# Submitted via: ExactAudioCopyFreeDBPlugin 1.0
#
DISCID=cb0cbd0f
DTITLE=Beegie Adair and Friends - Cocktail Party Jazz
DYEAR=1900
DGENRE=Jazz
TTITLE0=Beegie Adair - I've Got You Under My Skin
TTITLE1=David Huntsinger - Cheek to Cheek
TTITLE2=Beegie Adair - L-O-V-E
TTITLE3=Pat Coil - Here's That Rainy Day
TTITLE4=Beegie Adair - The Way You Look Tonight
TTITLE5=Leif Shires - Unforgettable
TTITLE6=Beegie Adair - Satin Doll
TTITLE7=Stephen Kummer - Summer Wind
TTITLE8=Beegie Adair - 's Wonderful
TTITLE9=Denis Solee and Beegie Adair - I Let a Song Go Out of My Heart
TTITLE10=Beegie Adair - Blue Skies
TTITLE11=Jack Jezzro - Night and Day
TTITLE12=Beegie Adair - Dancing on the Ceiling
TTITLE13=Stephen Kummer - Let's Fall in Love
TTITLE14=Beegie Adair - You're the Top
EXTD=
EXTT0=
EXTT1=
EXTT2=
EXTT3=
EXTT4=
EXTT5=
EXTT6=
EXTT7=
EXTT8=
EXTT9=
EXTT10=
EXTT11=
EXTT12=
EXTT13=
EXTT14=
PLAYORDER=
